<svg width="336" height="336" viewBox="0 0 336 336" fill="none" xmlns="http://www.w3.org/2000/svg">
<g filter="url(#filter0_d)">
<path d="M230.622 29.9264C156.586 -4.62296 68.5135 27.3263 33.9192 101.267C9.9032 152.646 18.045 210.76 50.0324 253.037C51.0401 254.369 51.3536 256.108 50.8347 257.695L36.3357 302.045C35.0291 306.042 38.939 309.768 42.8682 308.271L88.6163 290.843C90.0563 290.294 91.6663 290.444 92.9954 291.224C96.9846 293.564 101.104 295.762 105.352 297.744C179.389 332.293 267.461 300.344 302.055 226.404C336.65 152.463 304.659 64.4758 230.622 29.9264Z" fill="white"/>
</g>
<defs>
<filter id="filter0_d" x="0" y="0" width="336" height="335.67" filterUnits="userSpaceOnUse" color-interpolation-filters="sRGB">
<feFlood flood-opacity="0" result="BackgroundImageFix"/>
<feColorMatrix in="SourceAlpha" type="matrix" values="0 0 0 0 0 0 0 0 0 0 0 0 0 0 0 0 0 0 127 0"/>
<feOffset dy="4"/>
<feGaussianBlur stdDeviation="10"/>
<feColorMatrix type="matrix" values="0 0 0 0 0 0 0 0 0 0 0 0 0 0 0 0 0 0 0.1 0"/>
<feBlend mode="normal" in2="BackgroundImageFix" result="effect1_dropShadow"/>
<feBlend mode="normal" in="SourceGraphic" in2="effect1_dropShadow" result="shape"/>
</filter>
</defs>
</svg>
